{"title":"Yasujiro Ozu - Banshun (1949)","uid":5751098,"size":4686650317,"categoryP":"video","categoryS":"hd___movies","magnet":"?xt=urn:btih:2436a88d6530858917aa214391477e45df6304c6&amp;dn=Yasujiro+Ozu+-+Banshun+%281949%29&amp;tr=udp%3A%2F%2Ftracker.openbittorrent.com%3A80&amp;tr=udp%3A%2F%2Fopen.demonii.com%3A1337&amp;tr=udp%3A%2F%2Ftracker.coppersurfer.tk%3A6969&amp;tr=udp%3A%2F%2Fexodus.desync.com%3A6969","seeders":3,"leechers":4,"uploader":"mfccorrea","files":3,"time":1281397094,"description":"Veteran Japanese writer/director Yasujiro Ozu's second postwar production was 1949's Late Spring or Banshun. Chisu Ryu plays another of Ozu's realistic middle-class types, this time a widower with a marriageable daughter. Not wishing to see the girl resign herself to spinsterhood, Ryu  pretends that he himself is about to be married. The game plan is to convince the daughter that they'll be no room for her at home, thus forcing her to seek comfort and joy elsewhere. What makes this homey little domestic episode work is the rapport between Chisu Ryu and Setsuko Hara, who plays the daughter. Late Spring is no facile Hollywood farce; we like these people, believe in them, and wish them the best. \n\n   General\n      Complete name : Banshun.mkv\n      Format : Matroska\n      File size : 4.36 GiB\n      Duration : 1h 47mn\n      Overall bit rate : 5 787 Kbps\n      Encoded date : UTC 2010-07-27 22:02:05\n      Writing application : mkvmerge v4.0.0 ('The Stars were mine') built on Jun  6 2010 16:18:42\n      Writing library : libebml v1.0.0 + libmatroska v1.0.0\n   Video #1\n      ID : 1\n      Format : AVC\n      Format/Info : Advanced Video Codec\n      Format profile : &lt;a class=&quot;__cf_email__&quot; href=&quot;/cdn-cgi/l/email-protection&quot; data-cfemail=&quot;c28aaba5aa828ef6ecf3&quot;&gt;[email&amp;#160;protected]&lt;/a&gt;&lt;script data-cfhash='f9e31' type=&quot;text/javascript&quot;&gt;\n/* &lt;![CDATA[ */!function(){try{var t=&quot;currentScript&quot;in document?document.currentScript:function(){for(var t=document.getElementsByTagName(&quot;script&quot;),e=t.length;e--;)if(t[e].getAttribute(&quot;data-cfhash&quot;))return t[e]}();if(t&amp;&amp;t.previousSibling){var e,r,n,i,c=t.previousSibling,a=c.getAttribute(&quot;data-cfemail&quot;);if(a){for(e=&quot;&quot;,r=parseInt(a.substr(0,2),16),n=2;a.length-n;n+=2)i=parseInt(a.substr(n,2),16)^r,e+=String.fromCharCode(i);e=document.createTextNode(e),c.parentNode.replaceChild(e,c)}t.parentNode.removeChild(t);}}catch(u){}}()/* ]]&gt; */&lt;/script&gt;\n      Format settings, CABAC : Yes\n      Format settings, ReFrames : 5 frames\n      Muxing mode : Container profile=&lt;a class=&quot;__cf_email__&quot; href=&quot;/cdn-cgi/l/email-protection&quot; data-cfemail=&quot;33665d585d5c445d73071d02&quot;&gt;[email&amp;#160;protected]&lt;/a&gt;&lt;script data-cfhash='f9e31' type=&quot;text/javascript&quot;&gt;\n/* &lt;![CDATA[ */!function(){try{var t=&quot;currentScript&quot;in document?document.currentScript:function(){for(var t=document.getElementsByTagName(&quot;script&quot;),e=t.length;e--;)if(t[e].getAttribute(&quot;data-cfhash&quot;))return t[e]}();if(t&amp;&amp;t.previousSibling){var e,r,n,i,c=t.previousSibling,a=c.getAttribute(&quot;data-cfemail&quot;);if(a){for(e=&quot;&quot;,r=parseInt(a.substr(0,2),16),n=2;a.length-n;n+=2)i=parseInt(a.substr(n,2),16)^r,e+=String.fromCharCode(i);e=document.createTextNode(e),c.parentNode.replaceChild(e,c)}t.parentNode.removeChild(t);}}catch(u){}}()/* ]]&gt; */&lt;/script&gt;\n      Codec ID : V_MPEG4/ISO/AVC\n      Duration : 1h 47mn\n      Bit rate : 5 224 Kbps\n      Nominal bit rate : 5 337 Kbps\n      Width : 960 pixels\n &lt;a href=&quot;\nhttp://www.imdb.com/title/tt0041154/&quot; rel=&quot;nofollow&quot; target=&quot;_NEW&quot;&gt;\nhttp://www.imdb.com/title/tt0041154/&lt;/a&gt;\n\nJapanese audio; English (in the mkv), Spanish and Portuguese subtitles\n\nYasujiro Ozu - Banshun (1949)\n\nThis is the Late.Spring.1949.720p.BluRay.x264-TiTANS release\n      Height : 720 pixels\n      Display aspect ratio : 4:3\n      Frame rate : 23.976 fps\n      Resolution : 24 bits\n      Colorimetry : 4:2:0\n      Scan type : Progressive\n      Bits/(Pixel*Frame) : 0.315\n      Stream size : 3.94 GiB (90%)\n      Writing library : x264 core 104 r1683 62997d6\n    Audio #2\n      ID : 2\n      Format : AC-3\n      Format/Info : Audio Coding 3\n      Codec ID : A_AC3\n      Duration : 1h 47mn\n      Bit rate mode : Constant\n      Bit rate : 448 Kbps\n      Channel(s) : 2 channels\n      Channel positions : L R\n      Sampling rate : 48.0 KHz\n      Stream size : 346 MiB (8%)\n      Language : Japanese\n   Text #3\n      ID : 3\n      Format : UTF-8\n      Codec ID : S_TEXT/UTF8\n      Codec ID/Info : UTF-8 Plain Text","torrent":{"xt":"urn:btih:2436a88d6530858917aa214391477e45df6304c6","amp;dn":"Yasujiro+Ozu+-+Banshun+%281949%29","amp;tr":["udp%3A%2F%2Ftracker.openbittorrent.com%3A80","udp%3A%2F%2Fopen.demonii.com%3A1337","udp%3A%2F%2Ftracker.coppersurfer.tk%3A6969","udp%3A%2F%2Fexodus.desync.com%3A6969"],"infoHash":"2436a88d6530858917aa214391477e45df6304c6","infoHashBuffer":{"type":"Buffer","data":[36,54,168,141,101,48,133,137,23,170,33,67,145,71,126,69,223,99,4,198]},"announce":[],"urlList":[]}}